<svg width="20" height="21" viewBox="0 0 20 21" fill="none" xmlns="http://www.w3.org/2000/svg">
<path d="M11.9512 1.71648L12.1336 1.88648L12.8523 2.60523C13.0992 2.85095 13.423 3.00245 13.7675 3.03649L13.9162 3.04381H14.9442C16.548 3.04381 17.8595 4.29798 17.9511 5.87886L17.9562 6.05581V7.08281C17.9562 7.43261 18.0768 7.76889 18.2944 8.03627L18.3936 8.14648L19.1124 8.86528C20.2439 9.99168 20.2944 11.793 19.2578 12.9801L19.1226 13.1251L18.3942 13.8535C18.1492 14.0991 17.9976 14.4232 17.9636 14.7673L17.9562 14.9158V15.9448C17.9562 17.5485 16.7021 18.8591 15.1212 18.9507L14.9442 18.9558H13.9162C13.5677 18.9558 13.231 19.0769 12.9634 19.2951L12.8532 19.3945L12.1354 20.1113C11.0102 21.2442 9.20757 21.2945 8.02004 20.2574L7.8659 20.1131L7.14878 19.396C6.90039 19.1494 6.57595 18.9973 6.23245 18.9632L6.08423 18.9558H5.05523C3.45209 18.9558 2.14095 17.7023 2.04934 16.1217L2.04423 15.9448V14.9158C2.04423 14.5678 1.92293 14.2308 1.70485 13.9638L1.60553 13.8538L0.888399 13.1356C-0.244176 12.0095 -0.294414 10.2068 0.742606 9.02047L0.877897 8.87548L1.60402 8.14837C1.85096 7.89966 2.00279 7.57584 2.03689 7.23149L2.04423 7.08281V6.05581L2.04934 5.87888C2.13756 4.35671 3.35672 3.13718 4.87836 3.04893L5.05523 3.04381H6.08423C6.43271 3.04381 6.76948 2.92293 7.03652 2.70575L7.14653 2.60685L7.8647 1.88769C8.99106 0.756207 10.7935 0.706393 11.9512 1.71648ZM9.04164 2.84259L8.92692 2.94677L8.20567 3.66902C7.68842 4.18261 7.0043 4.48969 6.28205 4.5373L6.08423 4.54381H5.05523C4.26766 4.54381 3.61995 5.14796 3.55041 5.91825L3.54423 6.05581V7.08281C3.54423 7.81198 3.27962 8.51313 2.80233 9.06119L2.66692 9.20677L1.93976 9.93494C1.38794 10.4893 1.35581 11.3649 1.84346 11.959L1.94793 12.0739L2.66719 12.7941C3.18159 13.3097 3.48988 13.9951 3.53769 14.7179L3.54423 14.9158V15.9448C3.54423 16.7328 4.14793 17.3801 4.91774 17.4496L5.05523 17.4558H6.08423C6.81202 17.4558 7.51377 17.7207 8.06196 18.1981L8.20756 18.3335L8.93087 19.0568C9.48908 19.6119 10.365 19.6442 10.9585 19.1566L11.0733 19.0521L11.7942 18.3322C12.3109 17.818 12.9953 17.5101 13.7182 17.4623L13.9162 17.4558H14.9442C15.7329 17.4558 16.3805 16.8524 16.45 16.0823L16.4562 15.9448V14.9158C16.4562 14.187 16.721 13.484 17.1977 12.9383L17.3329 12.7935L18.0604 12.066C18.6122 11.511 18.6442 10.6358 18.1572 10.042L18.0529 9.92714L17.331 9.20526C16.8171 8.68769 16.5103 8.00425 16.4627 7.28097L16.4562 7.08281V6.05581C16.4562 5.2674 15.8522 4.61955 15.0818 4.54999L14.9442 4.54381H13.9162C13.1871 4.54381 12.485 4.27942 11.9381 3.80246L11.7929 3.66714L11.105 2.97737L11.0651 2.94034C10.5108 2.38858 9.63496 2.35627 9.04164 2.84259ZM13.0966 13.0424C13.1666 13.1124 13.2266 13.1924 13.2666 13.2824C13.2966 13.3724 13.3166 13.4724 13.3166 13.5724C13.3166 13.6734 13.2966 13.7624 13.2666 13.8524C13.2266 13.9424 13.1666 14.0324 13.0966 14.1024C12.9566 14.2424 12.7666 14.3224 12.5666 14.3224C12.3666 14.3224 12.1766 14.2424 12.0366 14.1024C11.9666 14.0324 11.9166 13.9424 11.8766 13.8524C11.8366 13.7624 11.8166 13.6734 11.8166 13.5724C11.8166 13.4724 11.8366 13.3724 11.8766 13.2824C11.9166 13.1924 11.9666 13.1124 12.0366 13.0424C12.3166 12.7624 12.8166 12.7624 13.0966 13.0424ZM13.1003 7.89918C13.3665 8.16545 13.3907 8.58211 13.1729 8.87572L13.1003 8.95984L7.96026 14.0998C7.66736 14.3927 7.19249 14.3927 6.8996 14.0998C6.63333 13.8336 6.60912 13.4169 6.82698 13.1233L6.8996 13.0392L12.0396 7.89918C12.3325 7.60629 12.8074 7.60629 13.1003 7.89918ZM7.95653 7.90281C8.09653 8.04181 8.17653 8.23281 8.17653 8.43281C8.17653 8.53281 8.16653 8.62181 8.12653 8.71281C8.08653 8.80281 8.02653 8.88281 7.95653 8.96281C7.88653 9.03281 7.80653 9.08181 7.71653 9.12181C7.62653 9.16181 7.52653 9.18281 7.42653 9.18281C7.32653 9.18281 7.23653 9.16181 7.14653 9.12181C7.05653 9.08181 6.96653 9.03281 6.89653 8.96281C6.82653 8.88281 6.77653 8.80281 6.73653 8.71281C6.69653 8.62181 6.67653 8.53281 6.67653 8.43281C6.67653 8.33181 6.69653 8.23281 6.73653 8.14281C6.77653 8.05281 6.82653 7.96281 6.89653 7.90281C7.18653 7.62181 7.67653 7.62181 7.95653 7.90281Z" fill="#EA7C69"/>
</svg>
